<?xml version="1.0" encoding="utf-8"?>
<!-- Generator: Adobe Illustrator 24.0.2, SVG Export Plug-In . SVG Version: 6.00 Build 0)  -->
<svg version="1.1" id="Calque_1" xmlns="http://www.w3.org/2000/svg" xmlns:xlink="http://www.w3.org/1999/xlink" x="0px" y="0px"
	 viewBox="0 0 74.6 74.6" style="enable-background:new 0 0 74.6 74.6;" xml:space="preserve">
<style type="text/css">
	.st0{fill:#470F10;}
	.st1{fill:none;stroke:#DD0933;stroke-width:3.9221;stroke-miterlimit:10;}
	.st2{fill:#DD0932;}
	.st3{fill:#C41532;}
	.st4{fill:#FFFFFF;}
</style>
<title>react</title>
<g>
	<path class="st0" d="M72.6,37.3c0,19.5-15.8,35.3-35.3,35.3C17.8,72.6,2,56.8,2,37.3C2,17.8,17.8,2,37.3,2
		C56.8,2,72.6,17.8,72.6,37.3"/>
	<path class="st1" d="M72.6,37.3c0,19.5-15.8,35.3-35.3,35.3C17.8,72.6,2,56.8,2,37.3C2,17.8,17.8,2,37.3,2
		C56.8,2,72.6,17.8,72.6,37.3z"/>
	<polygon class="st2" points="37.3,15.2 37.3,15.2 16.7,22.5 19.9,49.7 37.3,59.4 54.7,49.7 57.9,22.5 	"/>
	<polygon class="st3" points="37.3,15.2 37.3,20.1 37.3,20.1 37.3,42.5 37.3,59.4 54.7,49.7 57.9,22.5 	"/>
	<path class="st4" d="M37.3,20.1L24.4,48.9h4.8l2.6-6.5h10.9l2.6,6.5h4.8L37.3,20.1z M41,38.5h-7.5l3.8-9L41,38.5z"/>
</g>
</svg>
