<?xml version="1.0" encoding="utf-8"?>
<!-- Generator: Adobe Illustrator 24.0.2, SVG Export Plug-In . SVG Version: 6.00 Build 0)  -->
<svg version="1.1" id="Calque_1" xmlns="http://www.w3.org/2000/svg" xmlns:xlink="http://www.w3.org/1999/xlink" x="0px" y="0px"
	 viewBox="0 0 74.6 74.6" style="enable-background:new 0 0 74.6 74.6;" xml:space="preserve">
<style type="text/css">
	.st0{fill:#251426;stroke:#9A4A93;stroke-width:3.9193;stroke-miterlimit:10;}
	.st1{fill:#994992;}
	.st2{fill:#672575;}
	.st3{fill:#813184;}
	.st4{fill:#FFFFFF;}
</style>
<g>
	<circle class="st0" cx="37.3" cy="37.3" r="35.3"/>
	<g>
		<path id="XMLID_3_" class="st1" d="M56.5,28.4c0-0.7-0.2-1.4-0.5-1.9c-0.3-0.5-0.8-1-1.4-1.4c-5.1-2.9-10.2-5.9-15.3-8.8
			c-1.4-0.8-2.7-0.8-4.1,0c-2,1.2-12.2,7-15.2,8.8c-1.2,0.7-1.9,1.8-1.9,3.3c0,5.9,0,11.8,0,17.7c0,0.7,0.1,1.3,0.4,1.9
			c0.3,0.6,0.8,1,1.4,1.4c3,1.8,13.2,7.6,15.2,8.8c1.4,0.8,2.7,0.8,4.1,0c5.1-2.9,10.2-5.9,15.3-8.8c0.6-0.4,1.1-0.8,1.4-1.4
			c0.3-0.5,0.4-1.2,0.4-1.9C56.5,46.2,56.5,34.3,56.5,28.4"/>
		<path id="XMLID_4_" class="st2" d="M37.4,37.2L18.6,48.1c0.3,0.6,0.8,1,1.4,1.4c3,1.8,13.2,7.6,15.2,8.8c1.4,0.8,2.7,0.8,4.1,0
			c5.1-2.9,10.2-5.9,15.3-8.8c0.6-0.4,1.1-0.8,1.4-1.4L37.4,37.2"/>
		<path id="XMLID_5_" class="st2" d="M31.8,40.4c1.1,1.9,3.1,3.2,5.5,3.2c2.4,0,4.4-1.3,5.5-3.2l-5.5-3.2L31.8,40.4"/>
		<path id="XMLID_6_" class="st3" d="M56.5,28.4c0-0.7-0.2-1.4-0.5-1.9L37.4,37.2L56,48c0.3-0.5,0.4-1.2,0.4-1.9
			C56.5,46.2,56.5,34.3,56.5,28.4"/>
		<path id="XMLID_9_" class="st4" d="M42.8,40.4c-1.1,1.9-3.2,3.2-5.5,3.2c-2.4,0-4.4-1.3-5.5-3.2c-0.5-0.9-0.8-2-0.8-3.1
			c0-3.5,2.8-6.3,6.3-6.3c2.3,0,4.4,1.3,5.5,3.2l5.5-3.2c-2.2-3.8-6.3-6.4-11-6.4c-7,0-12.7,5.7-12.7,12.7c0,2.3,0.6,4.5,1.7,6.3
			c2.2,3.8,6.3,6.4,11,6.4c4.7,0,8.9-2.6,11.1-6.4L42.8,40.4"/>
		<g id="XMLID_32_">
			<rect id="XMLID_1_" x="48.6" y="34.3" class="st4" width="1.3" height="6.1"/>
			<rect id="XMLID_30_" x="51.4" y="34.3" class="st4" width="1.3" height="6.1"/>
			
				<rect id="XMLID_31_" x="50" y="32.9" transform="matrix(-1.836970e-16 1 -1 -1.836970e-16 86.5317 -14.646)" class="st4" width="1.3" height="6.1"/>
			
				<rect id="XMLID_23_" x="50" y="35.7" transform="matrix(-1.836970e-16 1 -1 -1.836970e-16 89.3246 -11.8531)" class="st4" width="1.3" height="6.1"/>
		</g>
	</g>
</g>
</svg>
