<?xml version="1.0" encoding="utf-8"?>
<!-- Generator: Adobe Illustrator 24.0.2, SVG Export Plug-In . SVG Version: 6.00 Build 0)  -->
<svg version="1.1" id="Calque_1" xmlns="http://www.w3.org/2000/svg" xmlns:xlink="http://www.w3.org/1999/xlink" x="0px" y="0px"
	 viewBox="0 0 74.6 74.6" style="enable-background:new 0 0 74.6 74.6;" xml:space="preserve">
<style type="text/css">
	.st0{fill:#464595;stroke:#9594C8;stroke-width:3.9193;stroke-miterlimit:10;}
	.st1{fill:#FFFFFF;}
</style>
<g>
	<circle class="st0" cx="37.3" cy="37.3" r="35.3"/>
	<g>
		<path class="st1" d="M16.7,45.6c-0.4,0-0.8-0.1-1.1-0.4c-0.3-0.3-0.5-0.7-0.5-1.1c0-0.4,0.2-0.8,0.5-1.1c0.3-0.3,0.7-0.5,1.1-0.5
			c0.4,0,0.8,0.2,1.1,0.5c0.3,0.3,0.5,0.7,0.5,1.1c0,0.4-0.2,0.8-0.5,1.1C17.6,45.5,17.2,45.6,16.7,45.6z"/>
		<path class="st1" d="M34.4,45.4h-2.9l-7.6-12c-0.2-0.3-0.4-0.6-0.5-0.9h-0.1c0.1,0.3,0.1,1.1,0.1,2.2v10.7H21V29.1H24l7.3,11.7
			c0.3,0.5,0.5,0.8,0.6,1h0c-0.1-0.4-0.1-1.2-0.1-2.2V29.1h2.5V45.4z"/>
		<path class="st1" d="M46.8,45.4h-8.9V29.1h8.6v2.3h-5.9V36H46v2.3h-5.5v4.8h6.3V45.4z"/>
		<path class="st1" d="M59.5,31.4h-4.6v14h-2.6v-14h-4.5v-2.3h11.7V31.4z"/>
	</g>
</g>
</svg>
